# xmcd
#
# Track frame offsets: 
#        182
#        9032
#        21802
#        32495
#        43640
#        54925
#        70035
#        83145
#        98105
#        109470
#        119132
#        131722
#        143837
#        154775
#        169027
#        179520
#        191537
#        204122
#
# Disc length: 2894 seconds
#
# Revision: 7
# Processed by: cddbd v1.5.2PL0 Copyright (c) Steve Scherf et al.
# Submitted via: ExactAudioCopy v1.0b6
#
DISCID=ea0b4c12
DTITLE=The R&B Box - The R&B Box: 30 Years of Rhythm and Blues [Soul Bro
DTITLE=thers And Soul Sisters 1961-1965] Disc 5
DYEAR=1994
DGENRE=Rhythm and Blues
TTITLE0=Chris Kenner - I Like it Like That, Part 1 (1961)
TTITLE1=Solomon Burke - Just Out of Reach (Of My Two Open Arms 1961)
TTITLE2=The Impressions - Gypsy Woman (1961)
TTITLE3=Gene Chandler - Duke of Earl (1961)
TTITLE4=Mary Wells - The One Who Really Loves You (1962)
TTITLE5=Chuck Jackson - Any Day Now (My Wild Beautiful Bird) (1962)
TTITLE6=Booker T. and The M.G.'s - Green Onions (1962)
TTITLE7=Esther Phillips ("Little Esther") - Release Me (1962)
TTITLE8=Doris Troy - Just One Look (1963)
TTITLE9=Marvin Gaye - Pride and Joy (1963)
TTITLE10=The Miracles - Mickey's Monkey (1963)
TTITLE11=Martha and The Vandellas - Quicksand (1963)
TTITLE12=Don Covay - Mercy, Mercy (with The Goodtimers) (1964)
TTITLE13=Joe Tex - Hold What You've Got (1964)
TTITLE14=Little Anthony and The Imperials - Hurt So Bad (1965)
TTITLE15=Little Milton - We're Gonna Make It (1965)
TTITLE16=The Four Tops - I Can't Help Myself (1965)
TTITLE17=Patti LaBelle and The Bluebelles - Over the Rainbow (1966)
EXTD=YEAR: 1994
EXTT0=
EXTT1=
EXTT2=
EXTT3=
EXTT4=
EXTT5=
EXTT6=
EXTT7=
EXTT8=
EXTT9=
EXTT10=
EXTT11=
EXTT12=
EXTT13=
EXTT14=
EXTT15=
EXTT16=
EXTT17=
PLAYORDER=
